<svg xmlns="http://www.w3.org/2000/svg" width="500" height="500" viewBox="0 0 500 500" fill="none"><path d="M137.398 281.001L137.402 281.001C153.869 284.392 162.329 284.646 172.867 284.963L173.301 284.976V264.479L94.0763 262.523C103.994 271.297 116.66 276.921 137.398 281.001Z" fill="#038CD4"></path><path fill-rule="evenodd" clip-rule="evenodd" d="M191.538 311.612C193.796 314.718 195.41 318.598 196.788 324.375L196.795 324.406L196.798 324.438C197.328 329.346 197.428 333.244 196.511 337.206C195.594 341.17 193.67 345.157 190.216 350.271L190.174 350.333L190.116 350.379C180.62 358.083 175.992 360.558 169.924 360.005C168.459 360.938 167.796 361.476 167.301 362.595L167.301 362.596V375.491H202.444C204.319 370.051 206.224 366.211 208.698 362.991C210.909 360.111 213.559 357.748 217.002 355.185C216.035 355.36 215.15 355.654 214.239 356.112C212.774 356.85 211.217 358.023 209.132 359.866L208.801 359.491V359.991H183.27L184.506 359.088C190.316 354.839 194.109 351.234 196.716 347.115C199.321 342.999 200.765 338.33 201.808 331.911L202.301 331.991L202.299 331.491L296.811 330.994C297.053 320.319 298.528 312.651 301.703 305.964C304.901 299.23 309.802 293.533 316.801 286.779V254.491H188.301V307.491H187.73C189.174 308.76 190.43 310.089 191.538 311.612ZM269.801 274.491V309.491H266.801C265.38 312.067 265.202 313.579 266.801 316.491H284.801C286.672 313.757 286.6 312.226 284.801 309.491H280.301V297.991H291.801C301.6 296.834 304.332 293.361 304.301 282.491C303.923 270.835 300.913 267.781 291.801 266.991L266.801 267.491C265.626 269.931 265.169 271.35 266.801 274.491H269.801ZM198.301 273.991L209.801 315.491L218.301 315.991L228.301 284.991L236.801 315.991H245.801L258.301 273.991H260.301V266.991H244.801V273.991L248.301 274.491L241.301 298.991L231.801 266.991H224.301L215.301 299.491L208.801 273.991H212.301V266.991H194.801V273.991H198.301Z" fill="#038CD4"></path><path d="M209.801 315.491L198.301 273.991H194.801V266.991H212.301V273.991H208.801L215.301 299.491L224.301 266.991H231.801L241.301 298.991L248.301 274.491L244.801 273.991V266.991H260.301V273.991H258.301L245.801 315.991H236.801L228.301 284.991L218.301 315.991L209.801 315.491Z" fill="black"></path><path fill-rule="evenodd" clip-rule="evenodd" d="M269.801 309.491V274.491H266.801C265.169 271.35 265.626 269.931 266.801 267.491L291.801 266.991C300.913 267.781 303.923 270.835 304.301 282.491C304.332 293.361 301.6 296.834 291.801 297.991H280.301V309.491H284.801C286.6 312.226 286.672 313.757 284.801 316.491H266.801C265.202 313.579 265.38 312.067 266.801 309.491H269.801ZM280.301 274.491V290.491H287.301C292.724 289.071 293.792 287.243 293.801 282.991C294.264 276.771 292.03 275.693 287.301 274.491H280.301Z" fill="black"></path><path d="M280.301 290.491V274.491H287.301C292.03 275.693 294.264 276.771 293.801 282.991C293.792 287.243 292.724 289.071 287.301 290.491H280.301Z" fill="#038CD4"></path><path d="M290.586 364.427C288.794 361.389 286.331 358.51 283.073 355.104C284.566 355.638 285.757 356.175 286.813 356.81C288.282 357.691 289.512 358.773 290.932 360.328L291.081 360.491H328.294C329.221 360.517 329.739 360.61 330.078 360.857C330.389 361.083 330.647 361.519 330.801 362.529V374.02L330.805 374.049C330.922 375.058 330.795 375.464 330.561 375.669C330.433 375.781 330.22 375.884 329.846 375.946C329.473 376.008 328.978 376.024 328.326 375.992L328.313 375.991H294.25C293.724 371.341 292.574 367.796 290.586 364.427Z" fill="#038CD4"></path><path fill-rule="evenodd" clip-rule="evenodd" d="M173.801 243.991V249.491H174.801V250.491H173.801V249.991H77.8013C74.6346 250.158 73.4013 255.991 93.8013 277.991C114.201 299.991 157.968 310.158 177.301 312.491C181.135 315.658 188.001 324.891 184.801 336.491C180.801 350.991 160.801 353.991 157.301 353.491C154.501 353.091 153.468 355.658 153.301 356.991C153.135 364.158 152.901 379.091 153.301 381.491C153.421 382.213 153.605 382.771 153.816 383.2C153.823 383.151 153.835 383.092 153.857 383.033C153.874 382.99 153.913 382.9 154.001 382.82C154.109 382.721 154.265 382.663 154.434 382.69C154.572 382.713 154.662 382.783 154.701 382.817C154.746 382.856 154.778 382.896 154.797 382.922C154.863 383.011 154.923 383.137 154.965 383.226C155.021 383.344 155.062 383.438 155.128 383.576C155.25 383.834 155.386 384.089 155.535 384.276C155.697 384.477 155.786 384.491 155.801 384.491V384.991H216.801C217.135 379.824 223.701 369.591 247.301 369.991C270.901 370.391 278.468 380.158 279.301 384.991H336.801C338.801 384.991 339.635 382.658 339.801 381.491C340.135 373.991 340.601 358.491 339.801 356.491C339.001 354.491 337.468 353.658 336.801 353.491L322.801 350.491C314.135 345.991 299.201 332.491 308.801 314.491C320.801 291.991 343.301 288.991 345.801 288.991C347.801 288.991 349.635 285.991 350.301 284.491C350.135 277.158 349.901 261.791 350.301 258.991C350.701 256.191 347.801 254.158 346.301 253.491H325.301C325.468 251.658 325.701 247.391 325.301 244.991C324.901 242.591 322.135 241.324 320.801 240.991H177.801C175.801 240.991 174.301 242.991 173.801 243.991ZM202.726 332.489C201.677 338.764 200.209 343.466 197.561 347.65C195.049 351.619 191.498 355.087 186.314 358.991H208.612C210.645 357.204 212.241 355.998 213.789 355.219C215.388 354.414 216.913 354.076 218.779 353.992L220.463 353.915L219.093 354.898C214.928 357.883 211.926 360.429 209.491 363.6C207.056 366.769 205.167 370.591 203.275 376.152L203.159 376.491H161.801V360.874L161.854 360.769C162.157 360.158 162.519 359.661 163.18 359.355C163.804 359.066 164.636 358.975 165.805 358.991H169.826L169.851 358.994C175.547 359.563 179.876 357.394 189.428 349.65C192.82 344.62 194.661 340.764 195.537 336.981C196.414 333.19 196.33 329.433 195.808 324.576C194.448 318.887 192.877 315.154 190.729 312.2C188.576 309.239 185.819 307.024 182.017 304.403L181.801 304.254V252.428L181.817 252.368C182.092 251.286 182.43 250.438 183.071 249.864C183.722 249.281 184.602 249.054 185.775 248.992L185.788 248.991H315.271C316.331 248.865 317.164 248.991 317.585 249.695C317.775 250.014 317.837 250.391 317.853 250.764C317.869 251.136 317.84 251.56 317.801 252.013V287.204L317.648 287.351C310.593 294.146 305.749 299.776 302.607 306.393C299.467 313.007 298.007 320.65 297.801 331.501L297.301 331.491L297.304 331.991L202.726 332.489ZM174.301 286.007L173.786 285.991L172.841 285.962C162.278 285.645 153.753 285.389 137.203 281.981C112.384 277.099 98.9103 269.979 87.9303 257.826L87.1756 256.991H174.301V286.007ZM280.943 354.34L281.449 353.514C283.932 354.282 285.755 355.008 287.328 355.952C288.851 356.867 290.119 357.975 291.521 359.491H328.315C329.227 359.516 330.047 359.597 330.667 360.049C331.312 360.519 331.63 361.301 331.796 362.418L331.801 362.454V373.963C331.914 374.957 331.869 375.854 331.218 376.423C330.9 376.7 330.487 376.853 330.011 376.932C329.538 377.011 328.966 377.024 328.289 376.991H293.35L293.304 376.542C292.814 371.79 291.692 368.269 289.725 364.935C287.749 361.585 284.91 358.404 280.943 354.34Z" fill="black"></path><path d="M173.801 249.491V243.991C174.301 242.991 175.801 240.991 177.801 240.991H320.801C322.135 241.324 324.901 242.591 325.301 244.991C325.701 247.391 325.468 251.658 325.301 253.491H346.301C347.801 254.158 350.701 256.191 350.301 258.991C349.901 261.791 350.135 277.158 350.301 284.491C349.635 285.991 347.801 288.991 345.801 288.991C343.301 288.991 320.801 291.991 308.801 314.491C299.201 332.491 314.135 345.991 322.801 350.491L336.801 353.491C337.468 353.658 339.001 354.491 339.801 356.491C340.601 358.491 340.135 373.991 339.801 381.491C339.635 382.658 338.801 384.991 336.801 384.991H279.301C278.468 380.158 270.901 370.391 247.301 369.991C223.701 369.591 217.135 379.824 216.801 384.991H155.801M173.801 249.491L173.801 250.491M173.801 249.491H174.801V250.491H173.801M154.801 384.991H155.801M155.301 384.491C154.952 384.491 154.308 384.198 153.816 383.2M173.786 285.991L174.301 286.007V256.991H87.1756L87.9303 257.826C98.9103 269.979 112.384 277.099 137.203 281.981C153.753 285.389 162.278 285.645 172.841 285.962M173.786 285.991C173.469 285.981 173.154 285.972 172.841 285.962M173.786 285.991L172.841 285.962M172.867 284.963C162.329 284.646 153.869 284.392 137.402 281.001L137.398 281.001C116.66 276.921 103.994 271.297 94.0763 262.523M172.867 284.963C173.012 284.967 173.156 284.971 173.301 284.976M172.867 284.963L173.301 284.976M173.301 284.976V264.479M173.801 250.491V249.991H77.8013C74.6346 250.158 73.4013 255.991 93.8013 277.991C114.201 299.991 157.968 310.158 177.301 312.491C181.135 315.658 188.001 324.891 184.801 336.491C180.801 350.991 160.801 353.991 157.301 353.491C154.501 353.091 153.468 355.658 153.301 356.991C153.135 364.158 152.901 379.091 153.301 381.491C153.421 382.213 153.605 382.771 153.816 383.2M187.301 307.121C185.967 305.987 184.476 304.889 182.801 303.729V252.554C183.064 251.541 183.34 250.965 183.738 250.609C184.132 250.256 184.728 250.05 185.815 249.991H315.332L315.362 249.987C316.406 249.859 316.641 250.066 316.726 250.208C316.791 250.317 316.841 250.498 316.854 250.807C316.867 251.112 316.843 251.486 316.803 251.948L316.801 251.97V253.491M187.301 307.121V253.491H316.801M187.301 307.121V307.491H187.73M187.301 307.121C187.446 307.244 187.589 307.367 187.73 307.491M316.801 253.491H317.301V254.491H316.801M316.801 253.491V254.491M202.301 331.991L201.808 331.911C200.765 338.33 199.321 342.999 196.716 347.115C194.109 351.234 190.316 354.839 184.506 359.088L183.27 359.991H208.801V359.491L209.132 359.866C211.217 358.023 212.774 356.85 214.239 356.112C215.15 355.654 216.035 355.36 217.002 355.185C213.559 357.748 210.909 360.111 208.698 362.991C206.224 366.211 204.319 370.051 202.444 375.491H167.301V362.596L167.301 362.595C167.796 361.476 168.459 360.938 169.924 360.005C175.992 360.558 180.62 358.083 190.116 350.379L190.174 350.333L190.216 350.271C193.67 345.157 195.594 341.17 196.511 337.206C197.428 333.244 197.328 329.346 196.798 324.438L196.795 324.406L196.788 324.375C195.41 318.598 193.796 314.718 191.538 311.612C190.43 310.089 189.174 308.76 187.73 307.491M202.301 331.991L202.299 331.491L296.811 330.994M202.301 331.991L202.304 332.491L202.726 332.489M202.301 331.991L202.795 332.071C202.772 332.211 202.749 332.35 202.726 332.489M296.811 330.994C297.053 320.319 298.528 312.651 301.703 305.964C304.901 299.23 309.802 293.533 316.801 286.779V254.491M296.811 330.994L297.299 330.991L297.301 331.491M296.811 330.994C296.808 331.156 296.804 331.318 296.801 331.482L297.301 331.491M316.801 254.491H188.301V307.491H187.73M244.801 266.991V273.991L248.301 274.491L241.301 298.991L231.801 266.991H224.301L215.301 299.491L208.801 273.991H212.301V266.991H194.801V273.991H198.301L209.801 315.491L218.301 315.991L228.301 284.991L236.801 315.991H245.801L258.301 273.991M244.801 266.991H260.801H260.301M244.801 266.991H260.301M260.801 273.991H258.301M258.301 273.991H260.301V266.991M92.8013 262.491L94.0763 262.523M173.801 264.491L173.301 264.479M94.0763 262.523L173.301 264.479M94.0763 262.523C92.4654 261.098 90.9271 259.589 89.4384 257.991H173.301V264.479M153.816 383.2C153.823 383.151 153.835 383.092 153.857 383.033C153.874 382.99 153.913 382.9 154.001 382.82C154.109 382.721 154.265 382.663 154.434 382.69C154.572 382.713 154.662 382.783 154.701 382.817C154.746 382.856 154.778 382.896 154.797 382.922C154.863 383.011 154.923 383.137 154.965 383.226C155.021 383.344 155.062 383.438 155.128 383.576C155.25 383.834 155.386 384.089 155.535 384.276C155.697 384.477 155.786 384.491 155.801 384.491V384.991M153.816 383.2C153.813 383.226 153.811 383.249 153.809 383.268C153.803 383.334 153.801 383.409 153.801 383.491H154.736C154.72 383.513 154.7 383.536 154.675 383.559C154.576 383.648 154.431 383.703 154.274 383.678C154.148 383.657 154.07 383.594 154.045 383.572C154.014 383.545 153.997 383.522 153.993 383.517C153.993 383.517 153.993 383.517 153.995 383.521C154.002 383.534 154.022 383.571 154.06 383.651C154.075 383.683 154.094 383.725 154.115 383.771C154.149 383.845 154.189 383.93 154.225 384.006C154.352 384.274 154.529 384.618 154.755 384.9C154.968 385.168 155.316 385.491 155.801 385.491V384.991M202.726 332.489C201.677 338.764 200.209 343.466 197.561 347.65C195.049 351.619 191.498 355.087 186.314 358.991H208.612C210.645 357.204 212.241 355.998 213.789 355.219C215.388 354.414 216.913 354.076 218.779 353.992L220.463 353.915L219.093 354.898C214.928 357.883 211.926 360.429 209.491 363.6C207.056 366.769 205.167 370.591 203.275 376.152L203.159 376.491H161.801V360.874L161.854 360.769C162.157 360.158 162.519 359.661 163.18 359.355C163.804 359.066 164.636 358.975 165.805 358.991H169.826L169.851 358.994C175.547 359.563 179.876 357.394 189.428 349.65C192.82 344.62 194.661 340.764 195.537 336.981C196.414 333.19 196.33 329.433 195.808 324.576C194.448 318.887 192.877 315.154 190.729 312.2C188.576 309.239 185.819 307.024 182.017 304.403L181.801 304.254V252.428L181.817 252.368C182.092 251.286 182.43 250.438 183.071 249.864C183.722 249.281 184.602 249.054 185.775 248.992L185.788 248.991H315.271C316.331 248.865 317.164 248.991 317.585 249.695C317.775 250.014 317.837 250.391 317.853 250.764C317.869 251.136 317.84 251.56 317.801 252.013V287.204L317.648 287.351C310.593 294.146 305.749 299.776 302.607 306.393C299.467 313.007 298.007 320.65 297.801 331.501L297.301 331.491M202.726 332.489L297.304 331.991L297.301 331.491M166.301 375.491H162.801V361.111C163.036 360.665 163.257 360.421 163.601 360.262C164.007 360.074 164.645 359.975 165.794 359.991L165.801 359.991H168.169C167.342 360.62 166.777 361.264 166.341 362.297L166.301 362.39V375.491ZM281.449 353.514L280.943 354.34C284.91 358.404 287.749 361.585 289.725 364.935C291.692 368.269 292.814 371.79 293.304 376.542L293.35 376.991H328.289C328.966 377.024 329.538 377.011 330.011 376.932C330.487 376.853 330.9 376.7 331.218 376.423C331.869 375.854 331.914 374.957 331.801 373.963V362.454L331.796 362.418C331.63 361.301 331.312 360.519 330.667 360.049C330.047 359.597 329.227 359.516 328.315 359.491H291.521C290.119 357.975 288.851 356.867 287.328 355.952C285.755 355.008 283.932 354.282 281.449 353.514ZM290.586 364.427C288.794 361.389 286.331 358.51 283.073 355.104C284.566 355.638 285.757 356.175 286.813 356.81C288.282 357.691 289.512 358.773 290.932 360.328L291.081 360.491H328.294C329.221 360.517 329.739 360.61 330.078 360.857C330.389 361.083 330.647 361.519 330.801 362.529V374.02L330.805 374.049C330.922 375.058 330.795 375.464 330.561 375.669C330.433 375.781 330.22 375.884 329.846 375.946C329.473 376.008 328.978 376.024 328.326 375.992L328.313 375.991H294.25C293.724 371.341 292.574 367.796 290.586 364.427ZM269.801 309.491V274.491H266.801C265.169 271.35 265.626 269.931 266.801 267.491L291.801 266.991C300.913 267.781 303.923 270.835 304.301 282.491C304.332 293.361 301.6 296.834 291.801 297.991H280.301V309.491H284.801C286.6 312.226 286.672 313.757 284.801 316.491H266.801C265.202 313.579 265.38 312.067 266.801 309.491H269.801ZM280.301 290.491V274.491H287.301C292.03 275.693 294.264 276.771 293.801 282.991C293.792 287.243 292.724 289.071 287.301 290.491H280.301Z" stroke="black"></path><path d="M262.801 198.991L285.301 169.491L276.801 165.491L264.301 184.991L267.301 159.991L260.801 157.991L246.301 175.991L250.219 153.953L242.801 150.491L236.301 188.491L242.801 191.491L257.301 174.491L255.301 196.991L261.801 200.491L262.801 198.991Z" fill="white"></path><path fill-rule="evenodd" clip-rule="evenodd" d="M244.301 238.991H258.801C262.307 238.828 263.338 237.298 264.801 233.991L278.301 201.491L404.801 263.491C410.155 265.009 413.42 262.825 419.801 252.491C424.777 242.867 424.193 238.889 420.301 232.991L291.801 175.991L305.801 141.991C307.633 135.421 305.885 133.183 299.301 130.991L265.301 116.491C259.896 114.119 257.137 114.429 252.801 118.491L245.801 131.491C241.786 136.552 238.395 137.949 230.801 138.491L211.301 180.991C214.15 182.863 216.623 184.194 215.801 191.491L207.801 212.991C206.787 217.745 207.003 220.131 211.301 222.991L244.301 238.991ZM285.301 169.491L262.801 198.991L261.801 200.491L255.301 196.991L257.301 174.491L242.801 191.491L236.301 188.491L242.801 150.491L250.219 153.953L246.301 175.991L260.801 157.991L267.301 159.991L264.301 184.991L276.801 165.491L285.301 169.491ZM220.301 214.491L253.301 229.991C252.609 231.178 251.099 231.303 247.301 230.991L213.801 214.491L219.801 201.491C223.392 193.518 222.157 189.022 218.301 180.991L235.801 142.991C250.463 138.429 254.03 133.023 257.301 121.491L262.301 121.991C256.858 133.67 256.888 141.72 238.301 146.991L224.301 182.991C226.893 194.35 227.265 200.964 220.301 214.491Z" fill="black"></path><path d="M253.301 229.991L220.301 214.491C227.265 200.964 226.893 194.35 224.301 182.991L238.301 146.991C256.888 141.72 256.858 133.67 262.301 121.991L257.301 121.491C254.03 133.023 250.463 138.429 235.801 142.991L218.301 180.991C222.157 189.022 223.392 193.518 219.801 201.491L213.801 214.491L247.301 230.991C251.099 231.303 252.609 231.178 253.301 229.991Z" fill="#038CD4"></path><path d="M250.301 153.491L250.219 153.953M250.301 153.991L250.219 153.953M250.219 153.953L246.301 175.991L260.801 157.991L267.301 159.991L264.301 184.991L276.801 165.491L285.301 169.491L262.801 198.991L261.801 200.491L255.301 196.991L257.301 174.491L242.801 191.491L236.301 188.491L242.801 150.491L250.219 153.953ZM244.301 238.991H258.801C262.307 238.828 263.338 237.298 264.801 233.991L278.301 201.491L404.801 263.491C410.155 265.009 413.42 262.825 419.801 252.491C424.777 242.867 424.193 238.889 420.301 232.991L291.801 175.991L305.801 141.991C307.633 135.421 305.885 133.183 299.301 130.991L265.301 116.491C259.896 114.119 257.137 114.429 252.801 118.491L245.801 131.491C241.786 136.552 238.395 137.949 230.801 138.491L211.301 180.991C214.15 182.863 216.623 184.194 215.801 191.491L207.801 212.991C206.787 217.745 207.003 220.131 211.301 222.991L244.301 238.991ZM253.301 229.991L220.301 214.491C227.265 200.964 226.893 194.35 224.301 182.991L238.301 146.991C256.888 141.72 256.858 133.67 262.301 121.991L257.301 121.491C254.03 133.023 250.463 138.429 235.801 142.991L218.301 180.991C222.157 189.022 223.392 193.518 219.801 201.491L213.801 214.491L247.301 230.991C251.099 231.303 252.609 231.178 253.301 229.991Z" stroke="black"></path><path d="M257.301 174.491V175.491" stroke="black"></path><path d="M412.801 245.491L289.801 187.991L291.801 184.491L415.801 239.991L412.801 245.491Z" fill="#0387CC" stroke="black"></path><path d="M202.301 331.991H201.301" stroke="black"></path><path d="M207.801 359.491H208.301H208.801" stroke="black"></path><path d="M296.301 331.491H296.801H297.301" stroke="black"></path><path d="M187.301 306.991V308.491" stroke="black"></path><rect x="280.801" y="353.991" width="3" height="2" fill="black"></rect><rect x="216.801" y="353.991" width="2" height="2" fill="black"></rect></svg>