<svg xmlns="http://www.w3.org/2000/svg" width="500" height="500" viewBox="0 0 500 500" fill="none"><path d="M186.225 203.86V258.882C191.227 263.05 200.293 274.2 196.542 285.454C194.874 292.228 186.538 306.15 166.53 307.651V322.969H169.344L170.594 311.715C179.764 309.943 198.668 301.836 200.918 283.579C201.648 279.515 200.668 269.136 190.915 260.132L192.165 257.006C195.083 260.445 201.544 269.261 204.045 277.014L288.765 278.264C289.078 272.012 293.392 255.943 308.148 241.687V208.55H312.927L312.837 204.798L186.225 203.86Z" fill="#038CD4"></path><path d="M186.225 309.839C192.165 307.859 204.045 299.835 204.045 283.579H288.765C290.537 291.082 298.831 307.213 317.839 311.715H285.951C282.617 305.254 270.008 292.019 246.249 290.769C238.641 290.087 220.176 292.946 207.171 309.839H186.225Z" fill="#131A19"></path><path fill-rule="evenodd" clip-rule="evenodd" d="M181.536 196.357C177.284 199.358 177.889 204.694 178.722 206.986L179.295 221.68L178.722 251.066V263.258C190.227 269.011 189.768 280.452 188.101 285.454C183.599 297.709 168.093 301.398 160.903 301.711C159.152 302.211 158.506 303.586 158.402 304.212V326.72C158.152 328.721 159.34 330.263 159.965 330.784L216.55 331.097C221.802 318.092 239.905 316.487 248.3 317.31C265.696 316.273 272.52 326.038 273.759 331.097H329.718C331.719 331.097 332.428 330.055 332.532 329.534L332.845 304.837C332.094 302.836 330.239 301.919 329.406 301.711C301.645 299.71 300.124 279.619 302.833 269.823C309.836 251.816 331.594 242.313 341.598 239.812C343.849 238.811 344.412 236.685 344.412 235.748V211.676C344.662 210.175 343.265 208.966 342.536 208.55H320.965V199.484C320.215 197.733 318.568 196.67 317.839 196.357H181.536ZM186.225 258.882V203.86L312.837 204.798L312.927 208.55H308.148V241.687C293.392 255.943 289.078 272.012 288.765 278.264L204.045 277.014C201.544 269.261 195.083 260.445 192.165 257.006L190.915 260.132C200.668 269.136 201.648 279.515 200.918 283.579C198.668 301.836 179.764 309.943 170.594 311.715L169.344 322.969H166.53V307.651C186.538 306.15 194.874 292.228 196.542 285.454C200.293 274.2 191.227 263.05 186.225 258.882ZM204.045 283.579C204.045 299.835 192.165 307.859 186.225 309.839H207.171C220.176 292.946 238.641 290.087 246.249 290.769C270.008 292.019 282.617 305.254 285.951 311.715H317.839C298.831 307.213 290.537 291.082 288.765 283.579H204.045Z" fill="#131A19"></path><path d="M89 206.986C102.755 245.751 154.546 260.653 178.722 263.258V251.066C144.209 250.066 117.396 229.599 108.017 219.179C120.522 225.64 152.284 220.929 179.295 221.68L178.722 206.986H89Z" fill="black"></path><path d="M179.295 221.68C152.284 220.929 120.522 225.64 108.017 219.179C117.396 229.599 144.209 250.066 178.722 251.066L179.295 221.68Z" fill="#038CD4"></path><path d="M287.827 164.783L288.14 164.157" stroke="black"></path><path d="M287.827 163.845L393.493 218.553L400.058 219.491" stroke="black"></path><path d="M216.237 158.843C215.138 161.04 214.522 162.272 213.423 164.47L214.986 175.099L221.239 180.726L251.251 193.856H261.567L278.136 179.476L287.827 164.47" stroke="black"></path><path d="M257.19 184.79L221.239 169.784L222.802 173.849L258.753 187.917L275.01 175.724L302.208 116.951L301.27 107.573L296.893 106.322L298.456 115.701L271.571 174.474L257.19 184.79Z" fill="#038CD4"></path><path d="M405.373 194.794L296.893 144.15L294.392 149.464L402.559 199.796L405.373 194.794Z" fill="#038CD4"></path><path fill-rule="evenodd" clip-rule="evenodd" d="M223.74 164.47L222.489 149.464L249.375 96.0058L264.381 89.1282L290.015 100.07L294.392 114.138L269.695 167.596L257.503 178.851L223.74 164.47ZM246.561 114.138L240.309 145.713L245.311 148.214L258.753 131.645L255.94 154.466L261.254 156.029L282.2 129.3L283.763 130.082L285.639 125.392L275.948 120.703L273.759 125.392L275.948 126.643L264.381 140.398L269.695 117.889L264.381 115.701L249.375 133.833L252.188 115.701L254.689 116.951L257.19 112.262L246.561 107.573L244.06 112.887L246.561 114.138Z" fill="#038CD4"></path><path d="M280.637 128.518L282.2 129.3M282.2 129.3L283.763 130.082L285.639 125.392L275.948 120.703L273.759 125.392L275.948 126.643L264.381 140.398L269.695 117.889L264.381 115.701L249.375 133.833L252.188 115.701L254.689 116.951L257.19 112.262L246.561 107.573L244.06 112.887L246.561 114.138L240.309 145.713L245.311 148.214L258.753 131.645L255.94 154.466L261.254 156.029L282.2 129.3ZM223.74 164.47L222.489 149.464L249.375 96.0058L264.381 89.1282L290.015 100.07L294.392 114.138L269.695 167.596L257.503 178.851L223.74 164.47ZM221.239 169.784L257.19 184.79L271.571 174.474L298.456 115.701L296.893 106.322L301.27 107.573L302.208 116.951L275.01 175.724L258.753 187.917L222.802 173.849L221.239 169.784ZM296.893 144.15L405.373 194.794L402.559 199.796L294.392 149.464L296.893 144.15Z" stroke="black"></path><mask id="path-7-outside-1_49_17" maskUnits="userSpaceOnUse" x="215.55" y="226.804" width="59" height="31" fill="black"><rect fill="white" x="215.55" y="226.804" width="59" height="31"></rect><path d="M225.944 252.292L231.608 228.366H234.772L235.495 232.351L229.46 256.804H226.061L225.944 252.292ZM223.034 228.366L227.721 252.292L227.331 256.804H223.542L217.233 228.366H223.034ZM240.475 252.195L245.104 228.366H250.905L244.616 256.804H240.827L240.475 252.195ZM236.55 228.366L242.253 252.39L242.096 256.804H238.698L232.624 232.331L233.405 228.366H236.55ZM259.948 228.366V256.804H254.089V228.366H259.948ZM271.276 240.515V245.085H258.346V240.515H271.276ZM272.643 228.366V232.956H258.346V228.366H272.643Z"></path></mask><path d="M225.944 252.292L231.608 228.366H234.772L235.495 232.351L229.46 256.804H226.061L225.944 252.292ZM223.034 228.366L227.721 252.292L227.331 256.804H223.542L217.233 228.366H223.034ZM240.475 252.195L245.104 228.366H250.905L244.616 256.804H240.827L240.475 252.195ZM236.55 228.366L242.253 252.39L242.096 256.804H238.698L232.624 232.331L233.405 228.366H236.55ZM259.948 228.366V256.804H254.089V228.366H259.948ZM271.276 240.515V245.085H258.346V240.515H271.276ZM272.643 228.366V232.956H258.346V228.366H272.643Z" fill="url(#paint0_linear_49_17)"></path><path d="M225.944 252.292L224.971 252.062L224.941 252.188L224.944 252.318L225.944 252.292ZM231.608 228.366V227.366H230.817L230.635 228.136L231.608 228.366ZM234.772 228.366L235.756 228.188L235.607 227.366H234.772V228.366ZM235.495 232.351L236.466 232.59L236.517 232.383L236.479 232.172L235.495 232.351ZM229.46 256.804V257.804H230.243L230.431 257.044L229.46 256.804ZM226.061 256.804L225.062 256.83L225.087 257.804H226.061V256.804ZM223.034 228.366L224.015 228.174L223.857 227.366H223.034V228.366ZM227.721 252.292L228.718 252.378L228.73 252.238L228.703 252.1L227.721 252.292ZM227.331 256.804V257.804H228.248L228.327 256.89L227.331 256.804ZM223.542 256.804L222.565 257.02L222.739 257.804H223.542V256.804ZM217.233 228.366V227.366H215.987L216.257 228.583L217.233 228.366ZM240.475 252.195L239.494 252.004L239.468 252.136L239.478 252.271L240.475 252.195ZM245.104 228.366V227.366H244.28L244.123 228.176L245.104 228.366ZM250.905 228.366L251.881 228.582L252.15 227.366H250.905V228.366ZM244.616 256.804V257.804H245.419L245.592 257.02L244.616 256.804ZM240.827 256.804L239.83 256.88L239.9 257.804H240.827V256.804ZM236.55 228.366L237.523 228.135L237.34 227.366H236.55V228.366ZM242.253 252.39L243.252 252.425L243.257 252.29L243.226 252.159L242.253 252.39ZM242.096 256.804V257.804H243.062L243.096 256.839L242.096 256.804ZM238.698 256.804L237.727 257.045L237.916 257.804H238.698V256.804ZM232.624 232.331L231.643 232.138L231.6 232.356L231.653 232.572L232.624 232.331ZM233.405 228.366V227.366H232.583L232.424 228.173L233.405 228.366ZM226.917 252.523L232.581 228.597L230.635 228.136L224.971 252.062L226.917 252.523ZM231.608 229.366H234.772V227.366H231.608V229.366ZM233.788 228.545L234.511 232.529L236.479 232.172L235.756 228.188L233.788 228.545ZM234.524 232.111L228.489 256.564L230.431 257.044L236.466 232.59L234.524 232.111ZM229.46 255.804H226.061V257.804H229.46V255.804ZM227.061 256.778L226.944 252.266L224.944 252.318L225.062 256.83L227.061 256.778ZM222.053 228.559L226.74 252.484L228.703 252.1L224.015 228.174L222.053 228.559ZM226.725 252.206L226.335 256.718L228.327 256.89L228.718 252.378L226.725 252.206ZM227.331 255.804H223.542V257.804H227.331V255.804ZM224.518 256.587L218.209 228.15L216.257 228.583L222.565 257.02L224.518 256.587ZM217.233 229.366H223.034V227.366H217.233V229.366ZM241.457 252.385L246.086 228.557L244.123 228.176L239.494 252.004L241.457 252.385ZM245.104 229.366H250.905V227.366H245.104V229.366ZM249.929 228.15L243.64 256.588L245.592 257.02L251.881 228.582L249.929 228.15ZM244.616 255.804H240.827V257.804H244.616V255.804ZM241.824 256.728L241.472 252.118L239.478 252.271L239.83 256.88L241.824 256.728ZM235.577 228.597L241.28 252.621L243.226 252.159L237.523 228.135L235.577 228.597ZM241.253 252.354L241.097 256.769L243.096 256.839L243.252 252.425L241.253 252.354ZM242.096 255.804H238.698V257.804H242.096V255.804ZM239.669 256.563L233.594 232.09L231.653 232.572L237.727 257.045L239.669 256.563ZM233.605 232.525L234.386 228.56L232.424 228.173L231.643 232.138L233.605 232.525ZM233.405 229.366H236.55V227.366H233.405V229.366ZM259.948 228.366H260.948V227.366H259.948V228.366ZM259.948 256.804V257.804H260.948V256.804H259.948ZM254.089 256.804H253.089V257.804H254.089V256.804ZM254.089 228.366V227.366H253.089V228.366H254.089ZM271.276 240.515H272.276V239.515H271.276V240.515ZM271.276 245.085V246.085H272.276V245.085H271.276ZM258.346 245.085H257.346V246.085H258.346V245.085ZM258.346 240.515V239.515H257.346V240.515H258.346ZM272.643 228.366H273.643V227.366H272.643V228.366ZM272.643 232.956V233.956H273.643V232.956H272.643ZM258.346 232.956H257.346V233.956H258.346V232.956ZM258.346 228.366V227.366H257.346V228.366H258.346ZM258.948 228.366V256.804H260.948V228.366H258.948ZM259.948 255.804H254.089V257.804H259.948V255.804ZM255.089 256.804V228.366H253.089V256.804H255.089ZM254.089 229.366H259.948V227.366H254.089V229.366ZM270.276 240.515V245.085H272.276V240.515H270.276ZM271.276 244.085H258.346V246.085H271.276V244.085ZM259.346 245.085V240.515H257.346V245.085H259.346ZM258.346 241.515H271.276V239.515H258.346V241.515ZM271.643 228.366V232.956H273.643V228.366H271.643ZM272.643 231.956H258.346V233.956H272.643V231.956ZM259.346 232.956V228.366H257.346V232.956H259.346ZM258.346 229.366H272.643V227.366H258.346V229.366Z" fill="black" mask="url(#path-7-outside-1_49_17)"></path><path d="M214.674 148.526L242.81 91.0039L263.443 81L270.633 81.9379L298.144 94.7554L305.959 105.384V121.328L297.206 140.398L406.936 191.668L411 195.419L410.687 202.297L406.936 212.301L399.746 219.491L393.493 218.553L288.14 163.532L278.136 179.788L261.254 193.856H250.938L221.239 181.039L214.674 175.412L213.423 164.47L216.237 158.843L214.674 148.526Z" fill="black" stroke="black"></path><path d="M256.252 184.79L220.301 169.784L221.864 173.849L257.816 187.916L274.072 175.724L301.27 116.951L300.332 107.573L295.955 106.322L297.519 115.701L270.633 174.474L256.252 184.79Z" fill="#038CD4"></path><path d="M404.435 194.794L295.955 144.15L293.454 149.464L401.621 199.796L404.435 194.794Z" fill="#038CD4"></path><path fill-rule="evenodd" clip-rule="evenodd" d="M222.802 164.47L221.552 149.464L248.437 96.0058L263.443 89.1281L289.078 100.07L293.454 114.138L268.757 167.596L256.565 178.85L222.802 164.47Z" fill="#038CD4"></path><mask id="path-11-outside-2_49_17" maskUnits="userSpaceOnUse" x="233.717" y="113.837" width="46.5372" height="43.5737" fill="black"><rect fill="white" x="233.717" y="113.837" width="46.5372" height="43.5737"></rect><path d="M245.462 141.339L260.558 121.932L263.435 123.247L262.437 127.171L246.784 146.904L243.693 145.492L245.462 141.339ZM252.759 118.368L247.078 142.078L244.848 146.019L241.402 144.444L247.483 115.957L252.759 118.368ZM258.719 147.29L272.833 127.541L278.109 129.952L260.569 153.203L257.123 151.629L258.719 147.29ZM265.052 123.986L260.254 148.206L258.278 152.156L255.187 150.744L259.833 125.96L262.192 122.679L265.052 123.986Z"></path></mask><path d="M245.462 141.339L260.558 121.932L263.435 123.247L262.437 127.171L246.784 146.904L243.693 145.492L245.462 141.339ZM252.759 118.368L247.078 142.078L244.848 146.019L241.402 144.444L247.483 115.957L252.759 118.368ZM258.719 147.29L272.833 127.541L278.109 129.952L260.569 153.203L257.123 151.629L258.719 147.29ZM265.052 123.986L260.254 148.206L258.278 152.156L255.187 150.744L259.833 125.96L262.192 122.679L265.052 123.986Z" fill="url(#paint1_linear_49_17)"></path><path d="M245.462 141.339L244.672 140.725L244.593 140.828L244.542 140.947L245.462 141.339ZM260.558 121.932L260.973 121.023L260.254 120.694L259.768 121.318L260.558 121.932ZM263.435 123.247L264.405 123.494L264.61 122.685L263.851 122.338L263.435 123.247ZM262.437 127.171L263.22 127.793L263.353 127.625L263.406 127.418L262.437 127.171ZM246.784 146.904L246.369 147.814L247.081 148.139L247.568 147.526L246.784 146.904ZM243.693 145.492L242.773 145.1L242.391 145.996L243.278 146.401L243.693 145.492ZM252.759 118.368L253.732 118.601L253.923 117.801L253.175 117.459L252.759 118.368ZM247.078 142.078L247.949 142.571L248.018 142.448L248.051 142.311L247.078 142.078ZM244.848 146.019L244.432 146.929L245.266 147.31L245.718 146.512L244.848 146.019ZM241.402 144.444L240.424 144.236L240.256 145.02L240.986 145.354L241.402 144.444ZM247.483 115.957L247.899 115.048L246.765 114.53L246.505 115.749L247.483 115.957ZM258.719 147.29L257.905 146.709L257.827 146.818L257.781 146.945L258.719 147.29ZM272.833 127.541L273.248 126.632L272.499 126.289L272.019 126.96L272.833 127.541ZM278.109 129.952L278.907 130.555L279.657 129.56L278.524 129.043L278.109 129.952ZM260.569 153.203L260.154 154.113L260.884 154.447L261.368 153.806L260.569 153.203ZM257.123 151.629L256.185 151.283L255.865 152.153L256.707 152.538L257.123 151.629ZM265.052 123.986L266.033 124.18L266.186 123.405L265.468 123.076L265.052 123.986ZM260.254 148.206L261.149 148.654L261.209 148.533L261.235 148.401L260.254 148.206ZM258.278 152.156L257.862 153.066L258.74 153.467L259.172 152.604L258.278 152.156ZM255.187 150.744L254.204 150.559L254.06 151.328L254.771 151.653L255.187 150.744ZM259.833 125.96L259.021 125.377L258.892 125.557L258.851 125.776L259.833 125.96ZM262.192 122.679L262.608 121.769L261.86 121.428L261.38 122.095L262.192 122.679ZM246.251 141.953L261.347 122.546L259.768 121.318L244.672 140.725L246.251 141.953ZM260.142 122.842L263.02 124.157L263.851 122.338L260.973 121.023L260.142 122.842ZM262.466 123L261.468 126.925L263.406 127.418L264.405 123.494L262.466 123ZM261.653 126.55L246.001 146.283L247.568 147.526L263.22 127.793L261.653 126.55ZM247.2 145.995L244.109 144.582L243.278 146.401L246.369 147.814L247.2 145.995ZM244.613 145.883L246.382 141.731L244.542 140.947L242.773 145.1L244.613 145.883ZM251.787 118.135L246.106 141.845L248.051 142.311L253.732 118.601L251.787 118.135ZM246.208 141.585L243.978 145.527L245.718 146.512L247.949 142.571L246.208 141.585ZM245.263 145.11L241.817 143.535L240.986 145.354L244.432 146.929L245.263 145.11ZM242.38 144.653L248.461 116.166L246.505 115.749L240.424 144.236L242.38 144.653ZM247.067 116.867L252.343 119.278L253.175 117.459L247.899 115.048L247.067 116.867ZM259.533 147.871L273.646 128.123L272.019 126.96L257.905 146.709L259.533 147.871ZM272.417 128.451L277.693 130.862L278.524 129.043L273.248 126.632L272.417 128.451ZM277.31 129.35L259.771 152.601L261.368 153.806L278.907 130.555L277.31 129.35ZM260.985 152.294L257.539 150.719L256.707 152.538L260.154 154.113L260.985 152.294ZM258.062 151.974L259.658 147.635L257.781 146.945L256.185 151.283L258.062 151.974ZM264.071 123.792L259.273 148.012L261.235 148.401L266.033 124.18L264.071 123.792ZM259.36 147.759L257.383 151.709L259.172 152.604L261.149 148.654L259.36 147.759ZM258.693 151.247L255.602 149.834L254.771 151.653L257.862 153.066L258.693 151.247ZM256.17 150.928L260.816 126.145L258.851 125.776L254.204 150.559L256.17 150.928ZM260.645 126.544L263.004 123.263L261.38 122.095L259.021 125.377L260.645 126.544ZM261.776 123.588L264.636 124.895L265.468 123.076L262.608 121.769L261.776 123.588Z" fill="black" mask="url(#path-11-outside-2_49_17)"></path><path d="M186.538 204.173H190.289V262.483L186.538 258.569V204.173Z" fill="white"></path><rect x="190.289" y="204.173" width="117.546" height="6.25243" fill="white"></rect><rect x="307.835" y="203.548" width="5.62718" height="6.87767" fill="black"></rect><path d="M106.819 217.303L179.411 216.678V224.181L112.134 222.93L110.258 221.054L109.32 220.117L106.819 217.303Z" fill="white"></path><mask id="path-17-outside-3_49_17" maskUnits="userSpaceOnUse" x="113" y="371" width="263" height="38" fill="black"><rect fill="white" x="113" y="371" width="263" height="38"></rect><path d="M125.273 401.586L132.07 372.875H135.867L136.734 377.656L129.492 407H125.414L125.273 401.586ZM121.781 372.875L127.406 401.586L126.938 407H122.391L114.82 372.875H121.781ZM142.711 401.469L148.266 372.875H155.227L147.68 407H143.133L142.711 401.469ZM138 372.875L144.844 401.703L144.656 407H140.578L133.289 377.633L134.227 372.875H138ZM181.945 401.516V407H163.781V401.516H181.945ZM166.078 372.875V407H159.047V372.875H166.078ZM179.578 386.773V392.117H163.781V386.773H179.578ZM181.922 372.875V378.383H163.781V372.875H181.922ZM199.406 392.023H190.641L190.594 387.195H197.953C199.25 387.195 200.312 387.031 201.141 386.703C201.969 386.359 202.586 385.867 202.992 385.227C203.414 384.57 203.625 383.773 203.625 382.836C203.625 381.773 203.422 380.914 203.016 380.258C202.625 379.602 202.008 379.125 201.164 378.828C200.336 378.531 199.266 378.383 197.953 378.383H193.078V407H186.047V372.875H197.953C199.938 372.875 201.711 373.062 203.273 373.438C204.852 373.812 206.188 374.383 207.281 375.148C208.375 375.914 209.211 376.883 209.789 378.055C210.367 379.211 210.656 380.586 210.656 382.18C210.656 383.586 210.336 384.883 209.695 386.07C209.07 387.258 208.078 388.227 206.719 388.977C205.375 389.727 203.617 390.141 201.445 390.219L199.406 392.023ZM199.102 407H188.719L191.461 401.516H199.102C200.336 401.516 201.344 401.32 202.125 400.93C202.906 400.523 203.484 399.977 203.859 399.289C204.234 398.602 204.422 397.812 204.422 396.922C204.422 395.922 204.25 395.055 203.906 394.32C203.578 393.586 203.047 393.023 202.312 392.633C201.578 392.227 200.609 392.023 199.406 392.023H192.633L192.68 387.195H201.117L202.734 389.094C204.812 389.062 206.484 389.43 207.75 390.195C209.031 390.945 209.961 391.922 210.539 393.125C211.133 394.328 211.43 395.617 211.43 396.992C211.43 399.18 210.953 401.023 210 402.523C209.047 404.008 207.648 405.125 205.805 405.875C203.977 406.625 201.742 407 199.102 407ZM235.688 372.875V407H228.656V372.875H235.688ZM249.281 387.453V392.938H233.766V387.453H249.281ZM250.922 372.875V378.383H233.766V372.875H250.922ZM283.031 389.141V390.758C283.031 393.352 282.68 395.68 281.977 397.742C281.273 399.805 280.281 401.562 279 403.016C277.719 404.453 276.188 405.555 274.406 406.32C272.641 407.086 270.68 407.469 268.523 407.469C266.383 407.469 264.422 407.086 262.641 406.32C260.875 405.555 259.344 404.453 258.047 403.016C256.75 401.562 255.742 399.805 255.023 397.742C254.32 395.68 253.969 393.352 253.969 390.758V389.141C253.969 386.531 254.32 384.203 255.023 382.156C255.727 380.094 256.719 378.336 258 376.883C259.297 375.43 260.828 374.32 262.594 373.555C264.375 372.789 266.336 372.406 268.477 372.406C270.633 372.406 272.594 372.789 274.359 373.555C276.141 374.32 277.672 375.43 278.953 376.883C280.25 378.336 281.25 380.094 281.953 382.156C282.672 384.203 283.031 386.531 283.031 389.141ZM275.93 390.758V389.094C275.93 387.281 275.766 385.688 275.438 384.312C275.109 382.938 274.625 381.781 273.984 380.844C273.344 379.906 272.562 379.203 271.641 378.734C270.719 378.25 269.664 378.008 268.477 378.008C267.289 378.008 266.234 378.25 265.312 378.734C264.406 379.203 263.633 379.906 262.992 380.844C262.367 381.781 261.891 382.938 261.562 384.312C261.234 385.688 261.07 387.281 261.07 389.094V390.758C261.07 392.555 261.234 394.148 261.562 395.539C261.891 396.914 262.375 398.078 263.016 399.031C263.656 399.969 264.438 400.68 265.359 401.164C266.281 401.648 267.336 401.891 268.523 401.891C269.711 401.891 270.766 401.648 271.688 401.164C272.609 400.68 273.383 399.969 274.008 399.031C274.633 398.078 275.109 396.914 275.438 395.539C275.766 394.148 275.93 392.555 275.93 390.758ZM288.094 372.875H300.82C303.43 372.875 305.672 373.266 307.547 374.047C309.438 374.828 310.891 375.984 311.906 377.516C312.922 379.047 313.43 380.93 313.43 383.164C313.43 384.992 313.117 386.562 312.492 387.875C311.883 389.172 311.016 390.258 309.891 391.133C308.781 391.992 307.477 392.68 305.977 393.195L303.75 394.367H292.688L292.641 388.883H300.867C302.102 388.883 303.125 388.664 303.938 388.227C304.75 387.789 305.359 387.18 305.766 386.398C306.188 385.617 306.398 384.711 306.398 383.68C306.398 382.586 306.195 381.641 305.789 380.844C305.383 380.047 304.766 379.438 303.938 379.016C303.109 378.594 302.07 378.383 300.82 378.383H295.125V407H288.094V372.875ZM307.172 407L299.391 391.789L306.82 391.742L314.695 406.672V407H307.172ZM345.891 389.164V402.688C345.359 403.328 344.539 404.023 343.43 404.773C342.32 405.508 340.891 406.141 339.141 406.672C337.391 407.203 335.273 407.469 332.789 407.469C330.586 407.469 328.578 407.109 326.766 406.391C324.953 405.656 323.391 404.586 322.078 403.18C320.781 401.773 319.781 400.055 319.078 398.023C318.375 395.977 318.023 393.641 318.023 391.016V388.883C318.023 386.258 318.359 383.922 319.031 381.875C319.719 379.828 320.695 378.102 321.961 376.695C323.227 375.289 324.734 374.219 326.484 373.484C328.234 372.75 330.18 372.383 332.32 372.383C335.289 372.383 337.727 372.867 339.633 373.836C341.539 374.789 342.992 376.117 343.992 377.82C345.008 379.508 345.633 381.445 345.867 383.633H339.047C338.875 382.477 338.547 381.469 338.062 380.609C337.578 379.75 336.883 379.078 335.977 378.594C335.086 378.109 333.93 377.867 332.508 377.867C331.336 377.867 330.289 378.109 329.367 378.594C328.461 379.062 327.695 379.758 327.07 380.68C326.445 381.602 325.969 382.742 325.641 384.102C325.312 385.461 325.148 387.039 325.148 388.836V391.016C325.148 392.797 325.32 394.375 325.664 395.75C326.008 397.109 326.516 398.258 327.188 399.195C327.875 400.117 328.719 400.812 329.719 401.281C330.719 401.75 331.883 401.984 333.211 401.984C334.32 401.984 335.242 401.891 335.977 401.703C336.727 401.516 337.328 401.289 337.781 401.023C338.25 400.742 338.609 400.477 338.859 400.227V394.18H332.438V389.164H345.891ZM374.461 401.516V407H356.297V401.516H374.461ZM358.594 372.875V407H351.562V372.875H358.594ZM372.094 386.773V392.117H356.297V386.773H372.094ZM374.438 372.875V378.383H356.297V372.875H374.438Z"></path></mask><path d="M125.273 401.586L132.07 372.875H135.867L136.734 377.656L129.492 407H125.414L125.273 401.586ZM121.781 372.875L127.406 401.586L126.938 407H122.391L114.82 372.875H121.781ZM142.711 401.469L148.266 372.875H155.227L147.68 407H143.133L142.711 401.469ZM138 372.875L144.844 401.703L144.656 407H140.578L133.289 377.633L134.227 372.875H138ZM181.945 401.516V407H163.781V401.516H181.945ZM166.078 372.875V407H159.047V372.875H166.078ZM179.578 386.773V392.117H163.781V386.773H179.578ZM181.922 372.875V378.383H163.781V372.875H181.922ZM199.406 392.023H190.641L190.594 387.195H197.953C199.25 387.195 200.312 387.031 201.141 386.703C201.969 386.359 202.586 385.867 202.992 385.227C203.414 384.57 203.625 383.773 203.625 382.836C203.625 381.773 203.422 380.914 203.016 380.258C202.625 379.602 202.008 379.125 201.164 378.828C200.336 378.531 199.266 378.383 197.953 378.383H193.078V407H186.047V372.875H197.953C199.938 372.875 201.711 373.062 203.273 373.438C204.852 373.812 206.188 374.383 207.281 375.148C208.375 375.914 209.211 376.883 209.789 378.055C210.367 379.211 210.656 380.586 210.656 382.18C210.656 383.586 210.336 384.883 209.695 386.07C209.07 387.258 208.078 388.227 206.719 388.977C205.375 389.727 203.617 390.141 201.445 390.219L199.406 392.023ZM199.102 407H188.719L191.461 401.516H199.102C200.336 401.516 201.344 401.32 202.125 400.93C202.906 400.523 203.484 399.977 203.859 399.289C204.234 398.602 204.422 397.812 204.422 396.922C204.422 395.922 204.25 395.055 203.906 394.32C203.578 393.586 203.047 393.023 202.312 392.633C201.578 392.227 200.609 392.023 199.406 392.023H192.633L192.68 387.195H201.117L202.734 389.094C204.812 389.062 206.484 389.43 207.75 390.195C209.031 390.945 209.961 391.922 210.539 393.125C211.133 394.328 211.43 395.617 211.43 396.992C211.43 399.18 210.953 401.023 210 402.523C209.047 404.008 207.648 405.125 205.805 405.875C203.977 406.625 201.742 407 199.102 407ZM235.688 372.875V407H228.656V372.875H235.688ZM249.281 387.453V392.938H233.766V387.453H249.281ZM250.922 372.875V378.383H233.766V372.875H250.922ZM283.031 389.141V390.758C283.031 393.352 282.68 395.68 281.977 397.742C281.273 399.805 280.281 401.562 279 403.016C277.719 404.453 276.188 405.555 274.406 406.32C272.641 407.086 270.68 407.469 268.523 407.469C266.383 407.469 264.422 407.086 262.641 406.32C260.875 405.555 259.344 404.453 258.047 403.016C256.75 401.562 255.742 399.805 255.023 397.742C254.32 395.68 253.969 393.352 253.969 390.758V389.141C253.969 386.531 254.32 384.203 255.023 382.156C255.727 380.094 256.719 378.336 258 376.883C259.297 375.43 260.828 374.32 262.594 373.555C264.375 372.789 266.336 372.406 268.477 372.406C270.633 372.406 272.594 372.789 274.359 373.555C276.141 374.32 277.672 375.43 278.953 376.883C280.25 378.336 281.25 380.094 281.953 382.156C282.672 384.203 283.031 386.531 283.031 389.141ZM275.93 390.758V389.094C275.93 387.281 275.766 385.688 275.438 384.312C275.109 382.938 274.625 381.781 273.984 380.844C273.344 379.906 272.562 379.203 271.641 378.734C270.719 378.25 269.664 378.008 268.477 378.008C267.289 378.008 266.234 378.25 265.312 378.734C264.406 379.203 263.633 379.906 262.992 380.844C262.367 381.781 261.891 382.938 261.562 384.312C261.234 385.688 261.07 387.281 261.07 389.094V390.758C261.07 392.555 261.234 394.148 261.562 395.539C261.891 396.914 262.375 398.078 263.016 399.031C263.656 399.969 264.438 400.68 265.359 401.164C266.281 401.648 267.336 401.891 268.523 401.891C269.711 401.891 270.766 401.648 271.688 401.164C272.609 400.68 273.383 399.969 274.008 399.031C274.633 398.078 275.109 396.914 275.438 395.539C275.766 394.148 275.93 392.555 275.93 390.758ZM288.094 372.875H300.82C303.43 372.875 305.672 373.266 307.547 374.047C309.438 374.828 310.891 375.984 311.906 377.516C312.922 379.047 313.43 380.93 313.43 383.164C313.43 384.992 313.117 386.562 312.492 387.875C311.883 389.172 311.016 390.258 309.891 391.133C308.781 391.992 307.477 392.68 305.977 393.195L303.75 394.367H292.688L292.641 388.883H300.867C302.102 388.883 303.125 388.664 303.938 388.227C304.75 387.789 305.359 387.18 305.766 386.398C306.188 385.617 306.398 384.711 306.398 383.68C306.398 382.586 306.195 381.641 305.789 380.844C305.383 380.047 304.766 379.438 303.938 379.016C303.109 378.594 302.07 378.383 300.82 378.383H295.125V407H288.094V372.875ZM307.172 407L299.391 391.789L306.82 391.742L314.695 406.672V407H307.172ZM345.891 389.164V402.688C345.359 403.328 344.539 404.023 343.43 404.773C342.32 405.508 340.891 406.141 339.141 406.672C337.391 407.203 335.273 407.469 332.789 407.469C330.586 407.469 328.578 407.109 326.766 406.391C324.953 405.656 323.391 404.586 322.078 403.18C320.781 401.773 319.781 400.055 319.078 398.023C318.375 395.977 318.023 393.641 318.023 391.016V388.883C318.023 386.258 318.359 383.922 319.031 381.875C319.719 379.828 320.695 378.102 321.961 376.695C323.227 375.289 324.734 374.219 326.484 373.484C328.234 372.75 330.18 372.383 332.32 372.383C335.289 372.383 337.727 372.867 339.633 373.836C341.539 374.789 342.992 376.117 343.992 377.82C345.008 379.508 345.633 381.445 345.867 383.633H339.047C338.875 382.477 338.547 381.469 338.062 380.609C337.578 379.75 336.883 379.078 335.977 378.594C335.086 378.109 333.93 377.867 332.508 377.867C331.336 377.867 330.289 378.109 329.367 378.594C328.461 379.062 327.695 379.758 327.07 380.68C326.445 381.602 325.969 382.742 325.641 384.102C325.312 385.461 325.148 387.039 325.148 388.836V391.016C325.148 392.797 325.32 394.375 325.664 395.75C326.008 397.109 326.516 398.258 327.188 399.195C327.875 400.117 328.719 400.812 329.719 401.281C330.719 401.75 331.883 401.984 333.211 401.984C334.32 401.984 335.242 401.891 335.977 401.703C336.727 401.516 337.328 401.289 337.781 401.023C338.25 400.742 338.609 400.477 338.859 400.227V394.18H332.438V389.164H345.891ZM374.461 401.516V407H356.297V401.516H374.461ZM358.594 372.875V407H351.562V372.875H358.594ZM372.094 386.773V392.117H356.297V386.773H372.094ZM374.438 372.875V378.383H356.297V372.875H374.438Z" fill="url(#paint2_linear_49_17)"></path><path d="M125.273 401.586L124.3 401.356L124.27 401.482L124.274 401.612L125.273 401.586ZM132.07 372.875V371.875H131.279L131.097 372.645L132.07 372.875ZM135.867 372.875L136.851 372.697L136.702 371.875H135.867V372.875ZM136.734 377.656L137.705 377.896L137.756 377.688L137.718 377.478L136.734 377.656ZM129.492 407V408H130.275L130.463 407.24L129.492 407ZM125.414 407L124.414 407.026L124.44 408H125.414V407ZM121.781 372.875L122.763 372.683L122.604 371.875H121.781V372.875ZM127.406 401.586L128.403 401.672L128.415 401.532L128.388 401.394L127.406 401.586ZM126.938 407V408H127.855L127.934 407.086L126.938 407ZM122.391 407L121.414 407.217L121.588 408H122.391V407ZM114.82 372.875V371.875H113.574L113.844 373.092L114.82 372.875ZM142.711 401.469L141.729 401.278L141.704 401.41L141.714 401.545L142.711 401.469ZM148.266 372.875V371.875H147.441L147.284 372.684L148.266 372.875ZM155.227 372.875L156.203 373.091L156.472 371.875H155.227V372.875ZM147.68 407V408H148.483L148.656 407.216L147.68 407ZM143.133 407L142.136 407.076L142.206 408H143.133V407ZM138 372.875L138.973 372.644L138.79 371.875H138V372.875ZM144.844 401.703L145.843 401.739L145.848 401.604L145.817 401.472L144.844 401.703ZM144.656 407V408H145.621L145.656 407.035L144.656 407ZM140.578 407L139.608 407.241L139.796 408H140.578V407ZM133.289 377.633L132.308 377.439L132.265 377.658L132.319 377.874L133.289 377.633ZM134.227 372.875V371.875H133.404L133.245 372.682L134.227 372.875ZM126.247 401.816L133.043 373.105L131.097 372.645L124.3 401.356L126.247 401.816ZM132.07 373.875H135.867V371.875H132.07V373.875ZM134.883 373.053L135.75 377.835L137.718 377.478L136.851 372.697L134.883 373.053ZM135.764 377.417L128.521 406.76L130.463 407.24L137.705 377.896L135.764 377.417ZM129.492 406H125.414V408H129.492V406ZM126.414 406.974L126.273 401.56L124.274 401.612L124.414 407.026L126.414 406.974ZM120.8 373.067L126.425 401.778L128.388 401.394L122.763 372.683L120.8 373.067ZM126.41 401.5L125.941 406.914L127.934 407.086L128.403 401.672L126.41 401.5ZM126.938 406H122.391V408H126.938V406ZM123.367 406.783L115.797 372.658L113.844 373.092L121.414 407.217L123.367 406.783ZM114.82 373.875H121.781V371.875H114.82V373.875ZM143.693 401.659L149.247 373.066L147.284 372.684L141.729 401.278L143.693 401.659ZM148.266 373.875H155.227V371.875H148.266V373.875ZM154.25 372.659L146.703 406.784L148.656 407.216L156.203 373.091L154.25 372.659ZM147.68 406H143.133V408H147.68V406ZM144.13 406.924L143.708 401.393L141.714 401.545L142.136 407.076L144.13 406.924ZM137.027 373.106L143.871 401.934L145.817 401.472L138.973 372.644L137.027 373.106ZM143.844 401.668L143.657 406.965L145.656 407.035L145.843 401.739L143.844 401.668ZM144.656 406H140.578V408H144.656V406ZM141.549 406.759L134.26 377.392L132.319 377.874L139.608 407.241L141.549 406.759ZM134.27 377.826L135.208 373.068L133.245 372.682L132.308 377.439L134.27 377.826ZM134.227 373.875H138V371.875H134.227V373.875ZM181.945 401.516H182.945V400.516H181.945V401.516ZM181.945 407V408H182.945V407H181.945ZM163.781 407H162.781V408H163.781V407ZM163.781 401.516V400.516H162.781V401.516H163.781ZM166.078 372.875H167.078V371.875H166.078V372.875ZM166.078 407V408H167.078V407H166.078ZM159.047 407H158.047V408H159.047V407ZM159.047 372.875V371.875H158.047V372.875H159.047ZM179.578 386.773H180.578V385.773H179.578V386.773ZM179.578 392.117V393.117H180.578V392.117H179.578ZM163.781 392.117H162.781V393.117H163.781V392.117ZM163.781 386.773V385.773H162.781V386.773H163.781ZM181.922 372.875H182.922V371.875H181.922V372.875ZM181.922 378.383V379.383H182.922V378.383H181.922ZM163.781 378.383H162.781V379.383H163.781V378.383ZM163.781 372.875V371.875H162.781V372.875H163.781ZM180.945 401.516V407H182.945V401.516H180.945ZM181.945 406H163.781V408H181.945V406ZM164.781 407V401.516H162.781V407H164.781ZM163.781 402.516H181.945V400.516H163.781V402.516ZM165.078 372.875V407H167.078V372.875H165.078ZM166.078 406H159.047V408H166.078V406ZM160.047 407V372.875H158.047V407H160.047ZM159.047 373.875H166.078V371.875H159.047V373.875ZM178.578 386.773V392.117H180.578V386.773H178.578ZM179.578 391.117H163.781V393.117H179.578V391.117ZM164.781 392.117V386.773H162.781V392.117H164.781ZM163.781 387.773H179.578V385.773H163.781V387.773ZM180.922 372.875V378.383H182.922V372.875H180.922ZM181.922 377.383H163.781V379.383H181.922V377.383ZM164.781 378.383V372.875H162.781V378.383H164.781ZM163.781 373.875H181.922V371.875H163.781V373.875ZM199.406 392.023V393.023H199.785L200.069 392.772L199.406 392.023ZM190.641 392.023L189.641 392.033L189.65 393.023H190.641V392.023ZM190.594 387.195V386.195H189.584L189.594 387.205L190.594 387.195ZM201.141 386.703L201.509 387.633L201.517 387.63L201.524 387.627L201.141 386.703ZM202.992 385.227L202.151 384.686L202.148 384.691L202.992 385.227ZM203.016 380.258L202.156 380.769L202.161 380.777L202.165 380.784L203.016 380.258ZM201.164 378.828L200.827 379.769L200.832 379.771L201.164 378.828ZM193.078 378.383V377.383H192.078V378.383H193.078ZM193.078 407V408H194.078V407H193.078ZM186.047 407H185.047V408H186.047V407ZM186.047 372.875V371.875H185.047V372.875H186.047ZM203.273 373.438L203.04 374.41L203.042 374.41L203.273 373.438ZM209.789 378.055L208.892 378.497L208.895 378.502L209.789 378.055ZM209.695 386.07L208.815 385.595L208.81 385.605L209.695 386.07ZM206.719 388.977L206.236 388.101L206.231 388.103L206.719 388.977ZM201.445 390.219L201.409 389.219L201.051 389.232L200.783 389.47L201.445 390.219ZM188.719 407L187.824 406.553L187.101 408H188.719V407ZM191.461 401.516V400.516H190.843L190.567 401.068L191.461 401.516ZM202.125 400.93L202.572 401.824L202.579 401.821L202.586 401.817L202.125 400.93ZM203.906 394.32L202.993 394.728L202.997 394.736L203.001 394.744L203.906 394.32ZM202.312 392.633L201.828 393.508L201.836 393.512L201.843 393.516L202.312 392.633ZM192.633 392.023L191.633 392.014L191.623 393.023H192.633V392.023ZM192.68 387.195V386.195H191.689L191.68 387.186L192.68 387.195ZM201.117 387.195L201.878 386.547L201.579 386.195H201.117V387.195ZM202.734 389.094L201.973 389.742L202.279 390.101L202.749 390.094L202.734 389.094ZM207.75 390.195L207.232 391.051L207.239 391.055L207.245 391.058L207.75 390.195ZM210.539 393.125L209.638 393.558L209.642 393.568L210.539 393.125ZM210 402.523L210.841 403.064L210.844 403.06L210 402.523ZM205.805 405.875L205.428 404.949L205.425 404.95L205.805 405.875ZM199.406 391.023H190.641V393.023H199.406V391.023ZM191.641 392.014L191.594 387.186L189.594 387.205L189.641 392.033L191.641 392.014ZM190.594 388.195H197.953V386.195H190.594V388.195ZM197.953 388.195C199.324 388.195 200.523 388.023 201.509 387.633L200.772 385.773C200.102 386.039 199.176 386.195 197.953 386.195V388.195ZM201.524 387.627C202.507 387.219 203.301 386.606 203.837 385.762L202.148 384.691C201.87 385.128 201.431 385.5 200.757 385.78L201.524 387.627ZM203.833 385.767C204.378 384.92 204.625 383.926 204.625 382.836H202.625C202.625 383.621 202.45 384.221 202.151 384.686L203.833 385.767ZM204.625 382.836C204.625 381.655 204.4 380.595 203.866 379.731L202.165 380.784C202.443 381.233 202.625 381.892 202.625 382.836H204.625ZM203.875 379.746C203.345 378.855 202.521 378.245 201.496 377.885L200.832 379.771C201.495 380.005 201.905 380.348 202.156 380.769L203.875 379.746ZM201.502 377.887C200.526 377.537 199.33 377.383 197.953 377.383V379.383C199.202 379.383 200.146 379.526 200.827 379.769L201.502 377.887ZM197.953 377.383H193.078V379.383H197.953V377.383ZM192.078 378.383V407H194.078V378.383H192.078ZM193.078 406H186.047V408H193.078V406ZM187.047 407V372.875H185.047V407H187.047ZM186.047 373.875H197.953V371.875H186.047V373.875ZM197.953 373.875C199.876 373.875 201.569 374.057 203.04 374.41L203.507 372.465C201.852 372.068 199.999 371.875 197.953 371.875V373.875ZM203.042 374.41C204.523 374.762 205.737 375.288 206.708 375.968L207.855 374.329C206.638 373.477 205.18 372.863 203.505 372.465L203.042 374.41ZM206.708 375.968C207.667 376.639 208.39 377.479 208.892 378.497L210.686 377.612C210.032 376.286 209.083 375.189 207.855 374.329L206.708 375.968ZM208.895 378.502C209.389 379.491 209.656 380.706 209.656 382.18H211.656C211.656 380.466 211.345 378.931 210.683 377.607L208.895 378.502ZM209.656 382.18C209.656 383.427 209.374 384.56 208.815 385.596L210.575 386.545C211.298 385.205 211.656 383.744 211.656 382.18H209.656ZM208.81 385.605C208.29 386.593 207.451 387.43 206.236 388.101L207.202 389.852C208.705 389.023 209.851 387.922 210.58 386.536L208.81 385.605ZM206.231 388.103C205.071 388.751 203.484 389.145 201.409 389.219L201.481 391.218C203.75 391.136 205.679 390.702 207.206 389.85L206.231 388.103ZM200.783 389.47L198.743 391.275L200.069 392.772L202.108 390.968L200.783 389.47ZM199.102 406H188.719V408H199.102V406ZM189.613 407.447L192.355 401.963L190.567 401.068L187.824 406.553L189.613 407.447ZM191.461 402.516H199.102V400.516H191.461V402.516ZM199.102 402.516C200.431 402.516 201.607 402.307 202.572 401.824L201.678 400.035C201.081 400.334 200.241 400.516 199.102 400.516V402.516ZM202.586 401.817C203.521 401.331 204.256 400.651 204.737 399.768L202.981 398.81C202.713 399.302 202.291 399.716 201.664 400.042L202.586 401.817ZM204.737 399.768C205.203 398.914 205.422 397.957 205.422 396.922H203.422C203.422 397.668 203.266 398.289 202.981 398.81L204.737 399.768ZM205.422 396.922C205.422 395.809 205.231 394.791 204.812 393.896L203.001 394.744C203.269 395.319 203.422 396.035 203.422 396.922H205.422ZM204.819 393.912C204.397 392.967 203.706 392.241 202.782 391.75L201.843 393.516C202.388 393.806 202.759 394.204 202.993 394.728L204.819 393.912ZM202.797 391.758C201.864 391.242 200.71 391.023 199.406 391.023V393.023C200.509 393.023 201.293 393.211 201.828 393.508L202.797 391.758ZM199.406 391.023H192.633V393.023H199.406V391.023ZM193.633 392.033L193.68 387.205L191.68 387.186L191.633 392.014L193.633 392.033ZM192.68 388.195H201.117V386.195H192.68V388.195ZM200.356 387.844L201.973 389.742L203.496 388.445L201.878 386.547L200.356 387.844ZM202.749 390.094C204.713 390.064 206.18 390.414 207.232 391.051L208.268 389.34C206.789 388.445 204.912 388.061 202.719 388.094L202.749 390.094ZM207.245 391.058C208.374 391.719 209.155 392.554 209.638 393.558L211.44 392.692C210.766 391.289 209.688 390.171 208.255 389.332L207.245 391.058ZM209.642 393.568C210.166 394.63 210.43 395.767 210.43 396.992H212.43C212.43 395.468 212.099 394.027 211.436 392.682L209.642 393.568ZM210.43 396.992C210.43 399.034 209.986 400.681 209.156 401.987L210.844 403.06C211.92 401.366 212.43 399.326 212.43 396.992H210.43ZM209.159 401.983C208.331 403.272 207.106 404.266 205.428 404.949L206.181 406.801C208.191 405.984 209.763 404.743 210.841 403.064L209.159 401.983ZM205.425 404.95C203.751 405.637 201.653 406 199.102 406V408C201.831 408 204.203 407.613 206.184 406.8L205.425 404.95ZM235.688 372.875H236.688V371.875H235.688V372.875ZM235.688 407V408H236.688V407H235.688ZM228.656 407H227.656V408H228.656V407ZM228.656 372.875V371.875H227.656V372.875H228.656ZM249.281 387.453H250.281V386.453H249.281V387.453ZM249.281 392.938V393.938H250.281V392.938H249.281ZM233.766 392.938H232.766V393.938H233.766V392.938ZM233.766 387.453V386.453H232.766V387.453H233.766ZM250.922 372.875H251.922V371.875H250.922V372.875ZM250.922 378.383V379.383H251.922V378.383H250.922ZM233.766 378.383H232.766V379.383H233.766V378.383ZM233.766 372.875V371.875H232.766V372.875H233.766ZM234.688 372.875V407H236.688V372.875H234.688ZM235.688 406H228.656V408H235.688V406ZM229.656 407V372.875H227.656V407H229.656ZM228.656 373.875H235.688V371.875H228.656V373.875ZM248.281 387.453V392.938H250.281V387.453H248.281ZM249.281 391.938H233.766V393.938H249.281V391.938ZM234.766 392.938V387.453H232.766V392.938H234.766ZM233.766 388.453H249.281V386.453H233.766V388.453ZM249.922 372.875V378.383H251.922V372.875H249.922ZM250.922 377.383H233.766V379.383H250.922V377.383ZM234.766 378.383V372.875H232.766V378.383H234.766ZM233.766 373.875H250.922V371.875H233.766V373.875ZM279 403.016L279.747 403.681L279.75 403.677L279 403.016ZM274.406 406.32L274.011 405.402L274.008 405.403L274.406 406.32ZM262.641 406.32L262.243 407.238L262.246 407.239L262.641 406.32ZM258.047 403.016L257.301 403.681L257.304 403.685L258.047 403.016ZM255.023 397.742L254.077 398.065L254.079 398.071L255.023 397.742ZM255.023 382.156L255.969 382.481L255.97 382.479L255.023 382.156ZM258 376.883L257.254 376.217L257.25 376.221L258 376.883ZM262.594 373.555L262.199 372.636L262.196 372.637L262.594 373.555ZM274.359 373.555L273.962 374.472L273.964 374.473L274.359 373.555ZM278.953 376.883L278.203 377.544L278.207 377.549L278.953 376.883ZM281.953 382.156L281.007 382.479L281.01 382.488L281.953 382.156ZM271.641 378.734L271.175 379.62L271.187 379.626L271.641 378.734ZM265.312 378.734L265.772 379.623L265.778 379.62L265.312 378.734ZM262.992 380.844L262.166 380.28L262.16 380.289L262.992 380.844ZM261.562 395.539L260.589 395.769L260.59 395.771L261.562 395.539ZM263.016 399.031L262.186 399.589L262.19 399.595L263.016 399.031ZM274.008 399.031L274.84 399.586L274.844 399.58L274.008 399.031ZM275.438 395.539L276.41 395.771L276.411 395.769L275.438 395.539ZM282.031 389.141V390.758H284.031V389.141H282.031ZM282.031 390.758C282.031 393.262 281.692 395.479 281.03 397.42L282.923 398.065C283.668 395.881 284.031 393.441 284.031 390.758H282.031ZM281.03 397.42C280.364 399.373 279.434 401.012 278.25 402.354L279.75 403.677C281.129 402.113 282.183 400.237 282.923 398.065L281.03 397.42ZM278.253 402.35C277.07 403.678 275.659 404.693 274.011 405.402L274.801 407.239C276.716 406.416 278.367 405.228 279.747 403.681L278.253 402.35ZM274.008 405.403C272.383 406.108 270.559 406.469 268.523 406.469V408.469C270.8 408.469 272.899 408.064 274.804 407.238L274.008 405.403ZM268.523 406.469C266.504 406.469 264.68 406.108 263.036 405.402L262.246 407.239C264.164 408.064 266.261 408.469 268.523 408.469V406.469ZM263.038 405.403C261.405 404.695 259.991 403.678 258.789 402.346L257.304 403.685C258.697 405.229 260.345 406.415 262.243 407.238L263.038 405.403ZM258.793 402.35C257.594 401.006 256.648 399.366 255.968 397.413L254.079 398.071C254.836 400.243 255.906 402.119 257.301 403.681L258.793 402.35ZM255.97 397.42C255.308 395.479 254.969 393.262 254.969 390.758H252.969C252.969 393.441 253.332 395.881 254.077 398.065L255.97 397.42ZM254.969 390.758V389.141H252.969V390.758H254.969ZM254.969 389.141C254.969 386.62 255.309 384.404 255.969 382.481L254.078 381.831C253.332 384.002 252.969 386.443 252.969 389.141H254.969ZM255.97 382.479C256.636 380.526 257.566 378.887 258.75 377.544L257.25 376.221C255.871 377.785 254.817 379.662 254.077 381.834L255.97 382.479ZM258.746 377.549C259.948 376.202 261.361 375.179 262.992 374.472L262.196 372.637C260.296 373.461 258.646 374.657 257.254 376.217L258.746 377.549ZM262.989 374.473C264.633 373.767 266.458 373.406 268.477 373.406V371.406C266.214 371.406 264.117 371.811 262.199 372.636L262.989 374.473ZM268.477 373.406C270.512 373.406 272.336 373.767 273.962 374.472L274.757 372.637C272.852 371.811 270.753 371.406 268.477 371.406V373.406ZM273.964 374.473C275.61 375.181 277.02 376.202 278.203 377.544L279.703 376.221C278.324 374.657 276.671 373.46 274.754 372.636L273.964 374.473ZM278.207 377.549C279.405 378.891 280.342 380.528 281.007 382.479L282.9 381.834C282.158 379.659 281.095 377.781 279.699 376.217L278.207 377.549ZM281.01 382.488C281.684 384.409 282.031 386.622 282.031 389.141H284.031C284.031 386.441 283.659 383.997 282.897 381.825L281.01 382.488ZM276.93 390.758V389.094H274.93V390.758H276.93ZM276.93 389.094C276.93 387.224 276.761 385.549 276.41 384.08L274.465 384.545C274.771 385.826 274.93 387.339 274.93 389.094H276.93ZM276.41 384.08C276.06 382.615 275.534 381.339 274.81 380.28L273.159 381.408C273.716 382.223 274.158 383.26 274.465 384.545L276.41 384.08ZM274.81 380.28C274.084 379.217 273.18 378.395 272.094 377.843L271.187 379.626C271.945 380.011 272.603 380.595 273.159 381.408L274.81 380.28ZM272.106 377.849C271.021 377.279 269.803 377.008 268.477 377.008V379.008C269.525 379.008 270.416 379.221 271.175 379.62L272.106 377.849ZM268.477 377.008C267.15 377.008 265.932 377.279 264.847 377.849L265.778 379.62C266.537 379.221 267.428 379.008 268.477 379.008V377.008ZM264.853 377.846C263.784 378.399 262.89 379.221 262.167 380.28L263.818 381.408C264.376 380.591 265.029 380.007 265.772 379.623L264.853 377.846ZM262.16 380.289C261.455 381.346 260.939 382.618 260.59 384.08L262.535 384.545C262.843 383.257 263.279 382.216 263.824 381.398L262.16 380.289ZM260.59 384.08C260.239 385.549 260.07 387.224 260.07 389.094H262.07C262.07 387.339 262.229 385.826 262.535 384.545L260.59 384.08ZM260.07 389.094V390.758H262.07V389.094H260.07ZM260.07 390.758C260.07 392.613 260.239 394.286 260.589 395.769L262.536 395.309C262.229 394.01 262.07 392.496 262.07 390.758H260.07ZM260.59 395.771C260.939 397.236 261.465 398.517 262.186 399.589L263.846 398.473C263.285 397.639 262.842 396.592 262.535 395.307L260.59 395.771ZM262.19 399.595C262.914 400.655 263.815 401.482 264.894 402.049L265.825 400.279C265.06 399.877 264.398 399.282 263.841 398.467L262.19 399.595ZM264.894 402.049C265.979 402.619 267.197 402.891 268.523 402.891V400.891C267.475 400.891 266.584 400.678 265.825 400.279L264.894 402.049ZM268.523 402.891C269.85 402.891 271.068 402.619 272.153 402.049L271.222 400.279C270.463 400.678 269.572 400.891 268.523 400.891V402.891ZM272.153 402.049C273.234 401.481 274.13 400.651 274.84 399.586L273.176 398.477C272.636 399.287 271.984 399.879 271.222 400.279L272.153 402.049ZM274.844 399.58C275.546 398.51 276.061 397.233 276.41 395.771L274.465 395.307C274.157 396.595 273.72 397.647 273.172 398.483L274.844 399.58ZM276.411 395.769C276.761 394.286 276.93 392.613 276.93 390.758H274.93C274.93 392.496 274.771 394.01 274.464 395.309L276.411 395.769ZM288.094 372.875V371.875H287.094V372.875H288.094ZM307.547 374.047L307.162 374.97L307.165 374.971L307.547 374.047ZM312.492 387.875L311.589 387.445L311.587 387.45L312.492 387.875ZM309.891 391.133L310.503 391.923L310.505 391.922L309.891 391.133ZM305.977 393.195L305.651 392.25L305.579 392.275L305.511 392.31L305.977 393.195ZM303.75 394.367V395.367H303.997L304.216 395.252L303.75 394.367ZM292.688 394.367L291.688 394.376L291.696 395.367H292.688V394.367ZM292.641 388.883V387.883H291.632L291.641 388.891L292.641 388.883ZM305.766 386.398L304.886 385.923L304.882 385.93L304.878 385.937L305.766 386.398ZM295.125 378.383V377.383H294.125V378.383H295.125ZM295.125 407V408H296.125V407H295.125ZM288.094 407H287.094V408H288.094V407ZM307.172 407L306.282 407.455L306.56 408H307.172V407ZM299.391 391.789L299.384 390.789L297.761 390.799L298.5 392.244L299.391 391.789ZM306.82 391.742L307.705 391.276L307.421 390.738L306.814 390.742L306.82 391.742ZM314.695 406.672H315.695V406.424L315.58 406.205L314.695 406.672ZM314.695 407V408H315.695V407H314.695ZM288.094 373.875H300.82V371.875H288.094V373.875ZM300.82 373.875C303.334 373.875 305.438 374.252 307.162 374.97L307.931 373.124C305.905 372.28 303.526 371.875 300.82 371.875V373.875ZM307.165 374.971C308.893 375.685 310.18 376.722 311.073 378.068L312.74 376.963C311.602 375.247 309.982 373.971 307.929 373.123L307.165 374.971ZM311.073 378.068C311.958 379.403 312.43 381.083 312.43 383.164H314.43C314.43 380.776 313.885 378.69 312.74 376.963L311.073 378.068ZM312.43 383.164C312.43 384.881 312.136 386.297 311.589 387.445L313.395 388.305C314.098 386.828 314.43 385.104 314.43 383.164H312.43ZM311.587 387.45C311.044 388.605 310.277 389.566 309.277 390.343L310.505 391.922C311.755 390.95 312.721 389.739 313.397 388.3L311.587 387.45ZM309.278 390.342C308.266 391.126 307.061 391.765 305.651 392.25L306.302 394.141C307.892 393.594 309.297 392.858 310.503 391.923L309.278 390.342ZM305.511 392.31L303.284 393.482L304.216 395.252L306.442 394.08L305.511 392.31ZM303.75 393.367H292.688V395.367H303.75V393.367ZM293.687 394.359L293.641 388.874L291.641 388.891L291.688 394.376L293.687 394.359ZM292.641 389.883H300.867V387.883H292.641V389.883ZM300.867 389.883C302.213 389.883 303.413 389.645 304.412 389.107L303.463 387.346C302.837 387.683 301.99 387.883 300.867 387.883V389.883ZM304.412 389.107C305.392 388.579 306.149 387.828 306.653 386.86L304.878 385.937C304.569 386.532 304.108 386.999 303.463 387.346L304.412 389.107ZM306.646 386.874C307.158 385.924 307.398 384.85 307.398 383.68H305.398C305.398 384.572 305.217 385.31 304.886 385.923L306.646 386.874ZM307.398 383.68C307.398 382.463 307.172 381.355 306.68 380.39L304.898 381.298C305.218 381.926 305.398 382.709 305.398 383.68H307.398ZM306.68 380.39C306.174 379.397 305.4 378.638 304.391 378.125L303.484 379.907C304.131 380.237 304.592 380.697 304.898 381.298L306.68 380.39ZM304.391 378.125C303.383 377.611 302.176 377.383 300.82 377.383V379.383C301.964 379.383 302.836 379.577 303.484 379.907L304.391 378.125ZM300.82 377.383H295.125V379.383H300.82V377.383ZM294.125 378.383V407H296.125V378.383H294.125ZM295.125 406H288.094V408H295.125V406ZM289.094 407V372.875H287.094V407H289.094ZM308.062 406.545L300.281 391.334L298.5 392.244L306.282 407.455L308.062 406.545ZM299.397 392.789L306.827 392.742L306.814 390.742L299.384 390.789L299.397 392.789ZM305.936 392.209L313.811 407.138L315.58 406.205L307.705 391.276L305.936 392.209ZM313.695 406.672V407H315.695V406.672H313.695ZM314.695 406H307.172V408H314.695V406ZM345.891 389.164H346.891V388.164H345.891V389.164ZM345.891 402.688L346.66 403.326L346.891 403.048V402.688H345.891ZM343.43 404.773L343.982 405.607L343.99 405.602L343.43 404.773ZM326.766 406.391L326.39 407.317L326.397 407.32L326.766 406.391ZM322.078 403.18L321.343 403.858L321.347 403.862L322.078 403.18ZM319.078 398.023L318.132 398.348L318.133 398.351L319.078 398.023ZM319.031 381.875L318.083 381.557L318.081 381.563L319.031 381.875ZM339.633 373.836L339.18 374.727L339.186 374.73L339.633 373.836ZM343.992 377.82L343.13 378.327L343.135 378.336L343.992 377.82ZM345.867 383.633V384.633H346.98L346.861 383.526L345.867 383.633ZM339.047 383.633L338.058 383.78L338.185 384.633H339.047V383.633ZM335.977 378.594L335.499 379.472L335.505 379.476L335.977 378.594ZM329.367 378.594L329.827 379.482L329.832 379.479L329.367 378.594ZM325.664 395.75L324.694 395.993L324.695 395.995L325.664 395.75ZM327.188 399.195L326.375 399.778L326.38 399.786L326.386 399.793L327.188 399.195ZM335.977 401.703L335.734 400.733L335.729 400.734L335.977 401.703ZM337.781 401.023L338.287 401.886L338.296 401.881L337.781 401.023ZM338.859 400.227L339.566 400.934L339.859 400.641V400.227H338.859ZM338.859 394.18H339.859V393.18H338.859V394.18ZM332.438 394.18H331.438V395.18H332.438V394.18ZM332.438 389.164V388.164H331.438V389.164H332.438ZM344.891 389.164V402.688H346.891V389.164H344.891ZM345.121 402.049C344.675 402.586 343.942 403.22 342.87 403.945L343.99 405.602C345.136 404.827 346.043 404.07 346.66 403.326L345.121 402.049ZM342.878 403.94C341.873 404.605 340.54 405.202 338.85 405.715L339.431 407.629C341.242 407.079 342.768 406.411 343.982 405.607L342.878 403.94ZM338.85 405.715C337.221 406.209 335.208 406.469 332.789 406.469V408.469C335.339 408.469 337.56 408.197 339.431 407.629L338.85 405.715ZM332.789 406.469C330.696 406.469 328.815 406.128 327.134 405.461L326.397 407.32C328.341 408.091 330.476 408.469 332.789 408.469V406.469ZM327.141 405.464C325.461 404.783 324.021 403.795 322.809 402.497L321.347 403.862C322.761 405.376 324.445 406.529 326.39 407.317L327.141 405.464ZM322.813 402.502C321.621 401.209 320.687 399.614 320.023 397.696L318.133 398.351C318.876 400.496 319.942 402.338 321.343 403.858L322.813 402.502ZM320.024 397.699C319.363 395.776 319.023 393.553 319.023 391.016H317.023C317.023 393.728 317.387 396.177 318.132 398.348L320.024 397.699ZM319.023 391.016V388.883H317.023V391.016H319.023ZM319.023 388.883C319.023 386.341 319.349 384.114 319.981 382.187L318.081 381.563C317.37 383.73 317.023 386.174 317.023 388.883H319.023ZM319.979 382.193C320.629 380.258 321.542 378.656 322.704 377.364L321.218 376.026C319.848 377.548 318.808 379.398 318.083 381.557L319.979 382.193ZM322.704 377.364C323.871 376.068 325.257 375.084 326.871 374.406L326.097 372.562C324.212 373.354 322.582 374.51 321.218 376.026L322.704 377.364ZM326.871 374.406C328.484 373.73 330.296 373.383 332.32 373.383V371.383C330.064 371.383 327.985 371.77 326.097 372.562L326.871 374.406ZM332.32 373.383C335.189 373.383 337.458 373.852 339.18 374.727L340.086 372.944C337.996 371.882 335.389 371.383 332.32 371.383V373.383ZM339.186 374.73C340.933 375.604 342.236 376.804 343.13 378.327L344.855 377.314C343.749 375.431 342.145 373.974 340.08 372.942L339.186 374.73ZM343.135 378.336C344.068 379.885 344.652 381.68 344.873 383.739L346.861 383.526C346.613 381.211 345.948 379.131 344.849 377.305L343.135 378.336ZM345.867 382.633H339.047V384.633H345.867V382.633ZM340.036 383.486C339.849 382.231 339.488 381.102 338.934 380.118L337.191 381.1C337.606 381.836 337.901 382.723 338.058 383.78L340.036 383.486ZM338.934 380.118C338.352 379.086 337.515 378.282 336.448 377.712L335.505 379.476C336.251 379.874 336.804 380.414 337.191 381.1L338.934 380.118ZM336.454 377.715C335.37 377.126 334.033 376.867 332.508 376.867V378.867C333.826 378.867 334.802 379.093 335.499 379.472L336.454 377.715ZM332.508 376.867C331.194 376.867 329.985 377.14 328.902 377.709L329.832 379.479C330.594 379.079 331.477 378.867 332.508 378.867V376.867ZM328.908 377.706C327.84 378.258 326.952 379.072 326.243 380.119L327.898 381.241C328.438 380.444 329.082 379.867 329.827 379.482L328.908 377.706ZM326.243 380.119C325.536 381.161 325.018 382.42 324.669 383.867L326.613 384.336C326.92 383.065 327.355 382.042 327.898 381.241L326.243 380.119ZM324.669 383.867C324.317 385.321 324.148 386.981 324.148 388.836H326.148C326.148 387.097 326.308 385.601 326.613 384.336L324.669 383.867ZM324.148 388.836V391.016H326.148V388.836H324.148ZM324.148 391.016C324.148 392.859 324.326 394.521 324.694 395.993L326.634 395.507C326.315 394.229 326.148 392.735 326.148 391.016H324.148ZM324.695 395.995C325.063 397.45 325.616 398.719 326.375 399.778L328 398.613C327.415 397.796 326.953 396.768 326.634 395.505L324.695 395.995ZM326.386 399.793C327.168 400.841 328.139 401.645 329.294 402.187L330.143 400.376C329.299 399.98 328.582 399.393 327.989 398.597L326.386 399.793ZM329.294 402.187C330.451 402.729 331.765 402.984 333.211 402.984V400.984C332 400.984 330.986 400.771 330.143 400.376L329.294 402.187ZM333.211 402.984C334.369 402.984 335.381 402.887 336.224 402.672L335.729 400.734C335.104 400.894 334.272 400.984 333.211 400.984V402.984ZM336.219 402.673C337.022 402.472 337.723 402.217 338.287 401.886L337.276 400.161C336.933 400.361 336.431 400.559 335.734 400.733L336.219 402.673ZM338.296 401.881C338.801 401.578 339.236 401.264 339.566 400.934L338.152 399.519C337.982 399.689 337.699 399.907 337.267 400.166L338.296 401.881ZM339.859 400.227V394.18H337.859V400.227H339.859ZM338.859 393.18H332.438V395.18H338.859V393.18ZM333.438 394.18V389.164H331.438V394.18H333.438ZM332.438 390.164H345.891V388.164H332.438V390.164ZM374.461 401.516H375.461V400.516H374.461V401.516ZM374.461 407V408H375.461V407H374.461ZM356.297 407H355.297V408H356.297V407ZM356.297 401.516V400.516H355.297V401.516H356.297ZM358.594 372.875H359.594V371.875H358.594V372.875ZM358.594 407V408H359.594V407H358.594ZM351.562 407H350.562V408H351.562V407ZM351.562 372.875V371.875H350.562V372.875H351.562ZM372.094 386.773H373.094V385.773H372.094V386.773ZM372.094 392.117V393.117H373.094V392.117H372.094ZM356.297 392.117H355.297V393.117H356.297V392.117ZM356.297 386.773V385.773H355.297V386.773H356.297ZM374.438 372.875H375.438V371.875H374.438V372.875ZM374.438 378.383V379.383H375.438V378.383H374.438ZM356.297 378.383H355.297V379.383H356.297V378.383ZM356.297 372.875V371.875H355.297V372.875H356.297ZM373.461 401.516V407H375.461V401.516H373.461ZM374.461 406H356.297V408H374.461V406ZM357.297 407V401.516H355.297V407H357.297ZM356.297 402.516H374.461V400.516H356.297V402.516ZM357.594 372.875V407H359.594V372.875H357.594ZM358.594 406H351.562V408H358.594V406ZM352.562 407V372.875H350.562V407H352.562ZM351.562 373.875H358.594V371.875H351.562V373.875ZM371.094 386.773V392.117H373.094V386.773H371.094ZM372.094 391.117H356.297V393.117H372.094V391.117ZM357.297 392.117V386.773H355.297V392.117H357.297ZM356.297 387.773H372.094V385.773H356.297V387.773ZM373.438 372.875V378.383H375.438V372.875H373.438ZM374.438 377.383H356.297V379.383H374.438V377.383ZM357.297 378.383V372.875H355.297V378.383H357.297ZM356.297 373.875H374.438V371.875H356.297V373.875Z" fill="black" mask="url(#path-17-outside-3_49_17)"></path><defs><linearGradient id="paint0_linear_49_17" x1="245.311" y1="219.804" x2="245.311" y2="266.697" gradientUnits="userSpaceOnUse"><stop stop-color="#02496E"></stop><stop offset="1" stop-color="#038CD4"></stop></linearGradient><linearGradient id="paint1_linear_49_17" x1="266.343" y1="115.162" x2="246.853" y2="157.813" gradientUnits="userSpaceOnUse"><stop stop-color="#02496E"></stop><stop offset="1" stop-color="#038CD4"></stop></linearGradient><linearGradient id="paint2_linear_49_17" x1="245" y1="363" x2="245" y2="419" gradientUnits="userSpaceOnUse"><stop stop-color="#02496E"></stop><stop offset="1" stop-color="#038CD4"></stop></linearGradient></defs></svg>